#!OML:ASF H:\Pregnant\Project 1\Capture day 1\Session 1\femalepreg.ASF
:FULLY-SPECIFIED
:DEGREES
624
root 3.88447 3.56346 28.1648 50.4867 -21.8606 296.083
lowerback 25.0197 12.5242 9.81989
upperback 6.15505 19.6647 13.4573
thorax -8.30866 8.99226 3.35126
lowerneck -28.9067 -7.03323 -1.0766
upperneck 11.6527 -14.8231 25.1718
head 11.0346 -4.26501 6.57347
rclavicle 3.02153e-014 -1.24042e-013
rhumerus 72.5059 79.3192 -23.2348
rradius 48.6762
rwrist 16.9851
rhand -62.0915 13.2429
rfingers 7.12502
rthumb -34.1406 346.49
lclavicle 3.02153e-014 -1.24042e-013
lhumerus -25.8921 -15.5606 88.6581
lradius 62.5774
lwrist 51.9976
lhand -50.2528 119.01
lfingers 7.12502
lthumb -22.8318 -269.658
rfemur -72.0222 6.24449 2.13111
rtibia 123.656
rfoot 28.0919 29.1246
rtoes 14.5455
lfemur -73.1113 -23.3032 -66.5221
ltibia 139.053
lfoot 9.68839 -31.8806
ltoes -66.0856
625
root 3.87664 3.56909 28.1586 50.5477 -21.9303 296.239
lowerback 24.8915 12.6098 9.85062
upperback 6.06584 19.7896 13.4462
thorax -8.33634 9.05382 3.30217
lowerneck -28.8134 -7.16542 -1.25536
upperneck 11.6328 -14.8799 25.017
head 11.0088 -4.32095 6.53029
rclavicle 7.87187e-014 -4.77083e-015
rhumerus 71.3418 79.3165 -24.2776
rradius 48.5592
rwrist 16.8388
rhand -62.04 13.194
rfingers 7.12502
rthumb -34.0917 346.431
lclavicle 7.87187e-014 -4.77083e-015
lhumerus -25.2818 -16.1914 88.6846
lradius 61.6306
lwrist 52.4183
lhand -50.1897 119.412
lfingers 7.12502
lthumb -22.7712 -269.264
rfemur -72.34 6.17137 1.97832
rtibia 123.741
rfoot 28.3583 29.2407
rtoes 15.1362
lfemur -73.2704 -23.5668 -66.6737
ltibia 139.114
lfoot 10.0751 -31.892
ltoes -66.0398
626
root 3.86862 3.57445 28.1525 50.5965 -22.009 296.401
lowerback 24.7755 12.6869 9.88511
upperback 5.98162 19.9031 13.4281
thorax -8.3597 9.10942 3.24627
lowerneck -28.733 -7.28634 -1.4172
upperneck 11.6132 -14.933 24.875
head 10.9856 -4.37226 6.49031
rclavicle -8.18993e-014 1.31993e-013
rhumerus 70.2361 79.3082 -25.2914
rradius 48.4204
rwrist 16.6902
rhand -61.9853 13.1598
rfingers 7.12502
rthumb -34.0397 346.385
lclavicle -8.18993e-014 1.31993e-013
lhumerus -24.6818 -16.7572 88.6964
lradius 60.6943
lwrist 52.8013
lhand -50.1289 119.783
lfingers 7.12502
lthumb -22.7128 -268.9
rfemur -72.6426 6.10529 1.8326
rtibia 123.824
rfoot 28.6243 29.3554
rtoes 15.7292
lfemur -73.415 -23.8111 -66.837
ltibia 139.169
lfoot 10.4599 -31.9001
ltoes -65.9945
627
root 3.86049 3.57951 28.1463 50.6296 -22.0987 296.566
lowerback 24.6776 12.7544 9.92411
upperback 5.90305 20.0044 13.4016
thorax -8.3801 9.1584 3.18085
lowerneck -28.6618 -7.39685 -1.56516
upperneck 11.5862 -14.9825 24.7551
head 10.9632 -4.41927 6.45718
rclavicle -7.95139e-016 -5.80451e-014
rhumerus 69.1698 79.2965 -26.2988
rradius 48.2585
rwrist 16.5479
rhand -61.9307 13.1174
rfingers 7.12502
rthumb -33.9878 346.331
lclavicle -7.95139e-016 -5.80451e-014
lhumerus -24.1049 -17.2501 88.69
lradius 59.7775
lwrist 53.1353
lhand -50.0756 120.111
lfingers 7.12502
lthumb -22.6617 -268.578
rfemur -72.9262 6.05038 1.69563
rtibia 123.901
rfoot 28.8782 29.4678
rtoes 16.305
lfemur -73.5414 -24.0278 -67.012
ltibia 139.218
lfoot 10.8388 -31.9044
ltoes -65.9495
628
root 3.85226 3.58427 28.1402 50.6448 -22.2004 296.734
lowerback 24.6011 12.8127 9.96648
upperback 5.83071 20.0944 13.3681
thorax -8.3997 9.20093 3.10721
lowerneck -28.596 -7.49875 -1.70497
upperneck 11.5476 -15.0281 24.6611
head 10.9401 -4.46248 6.43307
rclavicle 8.82604e-014 1.82882e-014
rhumerus 68.1213 79.2851 -27.3191
rradius 48.0743
rwrist 16.419
rhand -61.878 13.0364
rfingers 7.12502
rthumb -33.9378 346.239
lclavicle 8.82604e-014 1.82882e-014
lhumerus -23.5583 -17.6733 88.6673
lradius 58.8828
lwrist 53.4196
lhand -50.0344 120.391
lfingers 7.12502
lthumb -22.6221 -268.303
rfemur -73.1889 6.00886 1.56917
rtibia 123.974
rfoot 29.1096 29.5769
rtoes 16.843
lfemur -73.6478 -24.2118 -67.1988
ltibia 139.261
lfoot 11.2098 -31.9047
ltoes -65.9048
629
root 3.84397 3.58872 28.1342 50.6407 -22.3148 296.904
lowerback 24.5479 12.8628 10.01
upperback 5.76508 20.1746 13.3316
thorax -8.42122 9.2377 3.02923
lowerneck -28.5333 -7.59416 -1.84282
upperneck 11.4973 -15.0697 24.591
head 10.9161 -4.50239 6.41833
rclavicle -1.51076e-014 -1.12115e-013
rhumerus 67.0744 79.2774 -28.3621
rradius 47.8713
rwrist 16.3066
rhand -61.8274 12.8831
rfingers 7.12502
rthumb -33.8898 346.075
lclavicle -1.51076e-014 -1.12115e-013
lhumerus -23.0446 -18.0382 88.6338
lradius 58.009
lwrist 53.6617
lhand -50.0088 120.619
lfingers 7.12502
lthumb -22.5975 -268.079
rfemur -73.4297 5.98118 1.45532
rtibia 124.042
rfoot 29.3075 29.6837
rtoes 17.3167
lfemur -73.7333 -24.3613 -67.3975
ltibia 139.296
lfoot 11.5719 -31.9008
ltoes -65.8603
630
root 3.83563 3.59289 28.1281 50.6168 -22.4414 297.076
lowerback 24.5184 12.906 10.052
upperback 5.7064 20.2471 13.2964
thorax -8.44744 9.26978 2.95182
lowerneck -28.4731 -7.68517 -1.98358
upperneck 11.4379 -15.1072 24.5391
head 10.8915 -4.53955 6.41162
rclavicle 8.11041e-014 8.74653e-015
rhumerus 66.0039 79.2763 -29.4445
rradius 47.6553
rwrist 16.2109
rhand -61.7761 12.6261
rfingers 7.12502
rthumb -33.841 345.807
lclavicle 8.11041e-014 8.74653e-015
lhumerus -22.5633 -18.3625 88.5968
lradius 57.1523
lwrist 53.8737
lhand -50.0009 120.797
lfingers 7.12502
lthumb -22.59 -267.901
rfemur -73.648 5.96627 1.35663
rtibia 124.104
rfoot 29.4629 29.7889
rtoes 17.7034
lfemur -73.7978 -24.4771 -67.6079
ltibia 139.325
lfoot 11.9254 -31.8924
ltoes -65.8159
631
root 3.82721 3.5968 28.1221 50.5732 -22.5794 297.249
lowerback 24.5118 12.9441 10.0906
upperback 5.65461 20.314 13.2666
thorax -8.48053 9.29824 2.87926
lowerneck -28.416 -7.77343 -2.1297
upperneck 11.3732 -15.1409 24.4974
head 10.8668 -4.57449 6.41043
rclavicle 1.4233e-013 3.4191e-014
rhumerus 64.8814 79.2825 -30.5869
rradius 47.4341
rwrist 16.1285
rhand -61.7186 12.2375
rfingers 7.12502
rthumb -33.7864 345.407
lclavicle 1.4233e-013 3.4191e-014
lhumerus -22.111 -18.6662 88.5623
lradius 56.3088
lwrist 54.0701
lhand -50.0106 120.933
lfingers 7.12502
lthumb -22.5993 -267.764
rfemur -73.8438 5.96221 1.27596
rtibia 124.16
rfoot 29.5683 29.8943
rtoes 17.9822
lfemur -73.8417 -24.5618 -67.8299
ltibia 139.348
lfoot 12.2714 -31.8791
ltoes -65.7714
632
root 3.8187 3.60046 28.1159 50.5111 -22.7272 297.424
lowerback 24.5264 12.9782 10.1245
upperback 5.60934 20.3771 13.2441
thorax -8.52129 9.32394 2.81398
lowerneck -28.3632 -7.85993 -2.28093
upperneck 11.3066 -15.171 24.4586
head 10.8425 -4.60766 6.41193
rclavicle 1.35174e-014 5.00937e-014
rhumerus 63.6787 79.2941 -31.8119
rradius 47.2159
rwrist 16.0533
rhand -61.6474 11.6955
rfingers 7.12502
rthumb -33.7187 344.85
lclavicle 1.35174e-014 5.00937e-014
lhumerus -21.6829 -18.9681 88.5332
lradius 55.476
lwrist 54.2646
lhand -50.0358 121.038
lfingers 7.12502
lthumb -22.6235 -267.656
rfemur -74.0176 5.96606 1.21593
rtibia 124.21
rfoot 29.6175 30.002
rtoes 18.1346
lfemur -73.8662 -24.6199 -68.063
ltibia 139.365
lfoot 12.6123 -31.8605
ltoes -65.7269
